<svg xmlns="http://www.w3.org/2000/svg" viewBox="0 0 539.1 464.48"><defs><style>.cls-1{opacity:0.75;}.cls-2,.cls-3,.cls-5{fill:#fff;}.cls-3{stroke:#fff;stroke-miterlimit:10;stroke-width:1.15px;}.cls-4{opacity:0.2;}.cls-5{opacity:0.5;}.cls-6{fill:#2e193f;}</style></defs><title>MTTH-white-out-footer </title><g id="Layer_2" data-name="Layer 2"><g id="Layer_1-2" data-name="Layer 1"><g class="cls-1"><path class="cls-2" d="M4,417.7h9.64q5.53,0,8.48,2.48a8.38,8.38,0,0,1,2.94,6.76,8.55,8.55,0,0,1-3,6.86q-3,2.53-8.7,2.53H6.72v16.36H4Zm2.71,2.25v14.13h6.51q4.38,0,6.66-1.85a7.09,7.09,0,0,0,0-10.37,9.57,9.57,0,0,0-6.39-1.9Z" transform="translate(0)"/><path class="cls-2" d="M41,431.15v2.66a11.69,11.69,0,0,0-6.31-2.35,5.5,5.5,0,0,0-3.51,1.12,3.41,3.41,0,0,0-1.43,2.77,3.21,3.21,0,0,0,.87,2.16q.87,1,4.78,2.5t5.12,3.14a6,6,0,0,1,1.2,3.63,5.7,5.7,0,0,1-2.18,4.52,8.06,8.06,0,0,1-5.38,1.84,13.11,13.11,0,0,1-6.91-2.1v-2.4a16.2,16.2,0,0,0,7.24,2.1A5.31,5.31,0,0,0,38,449.61a3.57,3.57,0,0,0,1.37-2.88,3.29,3.29,0,0,0-.89-2.22q-.89-1-4.81-2.57t-5.08-3.07a5.4,5.4,0,0,1-1.17-3.37A5.66,5.66,0,0,1,29.55,431a7.87,7.87,0,0,1,5.27-1.84A12.34,12.34,0,0,1,41,431.15Z" transform="translate(0)"/><path class="cls-2" d="M64,429.64,46.73,464.48H44.21l8.06-16.28-9.71-18.57h2.58l8.36,16.09,8-16.09Z" transform="translate(0)"/><path class="cls-2" d="M82.06,430.32V433a15.09,15.09,0,0,0-6-1.45,8.06,8.06,0,0,0-6.27,2.68,10,10,0,0,0-2.42,7,9.69,9.69,0,0,0,2.42,6.92,8.47,8.47,0,0,0,6.48,2.57,16.44,16.44,0,0,0,6.21-1.33V452a20,20,0,0,1-6.41,1.18,10.89,10.89,0,0,1-8.18-3.21,11.56,11.56,0,0,1-3.12-8.42,12.66,12.66,0,0,1,3.14-8.88,10.38,10.38,0,0,1,8-3.44A19.85,19.85,0,0,1,82.06,430.32Z" transform="translate(0)"/><path class="cls-2" d="M88.63,417.7v16h.1q2.88-4.46,7.59-4.46a8.11,8.11,0,0,1,6.24,2.5,9.72,9.72,0,0,1,2.33,6.89v14.1h-2.46V439.56q0-8-6.26-8-4.48,0-7.54,4.93v16.16H86.17v-35Z" transform="translate(0)"/><path class="cls-2" d="M121,429.19a11.19,11.19,0,0,1,8.35,3.43,12.6,12.6,0,0,1,0,17.1,11.94,11.94,0,0,1-16.73,0,12.53,12.53,0,0,1,0-17.1A11.27,11.27,0,0,1,121,429.19Zm0,21.54A8.62,8.62,0,0,0,127.5,448a10.24,10.24,0,0,0,0-13.66A8.57,8.57,0,0,0,121,431.6a8.67,8.67,0,0,0-6.52,2.73,10.25,10.25,0,0,0,0,13.69A8.69,8.69,0,0,0,121,450.73Z" transform="translate(0)"/><path class="cls-2" d="M141.58,422v7.64H148v2h-6.46v13.7a11.16,11.16,0,0,0,.54,4.35q.54,1,2.89,1a10.18,10.18,0,0,0,4.21-1.13V452a10.86,10.86,0,0,1-4.76,1.18,5.67,5.67,0,0,1-3.81-1.3,4.48,4.48,0,0,1-1.53-3.61V431.65h-6.21v-2h6.21v-5.49L140.8,422Z" transform="translate(0)"/><path class="cls-2" d="M154,417.7v16h.1q2.88-4.46,7.59-4.46a8.11,8.11,0,0,1,6.24,2.5,9.72,9.72,0,0,1,2.33,6.89v14.1h-2.46V439.56q0-8-6.26-8-4.48,0-7.54,4.93v16.16h-2.46v-35Z" transform="translate(0)"/><path class="cls-2" d="M195.28,440.31H177.12a9.54,9.54,0,0,0-.08,1.2,8.77,8.77,0,0,0,2.75,6.54,9,9,0,0,0,6.51,2.68,13.43,13.43,0,0,0,8.57-3.43v2.78a14.15,14.15,0,0,1-8.87,3.06,10.83,10.83,0,0,1-8.24-3.46,12.31,12.31,0,0,1-3.26-8.79,12,12,0,0,1,3-8.38,10.27,10.27,0,0,1,14.8-.33A11.06,11.06,0,0,1,195.28,440.31Zm-17.83-2h14.93q-1.3-6.74-7.29-6.74a7.29,7.29,0,0,0-4.9,1.77A8.65,8.65,0,0,0,177.45,438.33Z" transform="translate(0)"/><path class="cls-2" d="M215.15,431.92l-1.43,2.3q-2.88-2.63-4.63-2.63-3.46,0-7.39,6.61v14.48h-2.45v-23h2.45v6.06h.1q4.13-6.51,8.07-6.51Q212.11,429.19,215.15,431.92Z" transform="translate(0)"/><path class="cls-2" d="M234.93,448.68v2.05q-3.18,2.41-4.66,2.41a1.24,1.24,0,0,1-1.18-.56,6.39,6.39,0,0,1-.48-2.29,11.69,11.69,0,0,1-7.21,2.86,6.18,6.18,0,0,1-4.41-1.7,5.48,5.48,0,0,1-1.8-4.13,6.67,6.67,0,0,1,3.48-5.92q3.48-2.17,9.94-2.49V436q0-4.71-5.11-4.71-3.26,0-7,2.93v-2.53a14.08,14.08,0,0,1,7.44-2.45,8.29,8.29,0,0,1,5.16,1.54,5.27,5.27,0,0,1,2,4.47v14.35q0,1.18.55,1.18Q232.35,450.73,234.93,448.68Zm-6.31-.55v-7.19a14.18,14.18,0,0,0-7.85,1.67q-3.12,1.84-3.12,4.7A3.41,3.41,0,0,0,219,450a4.87,4.87,0,0,0,3.26,1.1Q225.37,451.11,228.62,448.13Z" transform="translate(0)"/><path class="cls-2" d="M239.89,429.64v1.3a15.31,15.31,0,0,1,6.94-1.75,10.79,10.79,0,0,1,8.14,3.38,12.74,12.74,0,0,1-.1,17.07,10.82,10.82,0,0,1-8.14,3.49,15.41,15.41,0,0,1-6.84-1.73v13.08h-2.45V429.64Zm0,3.66V449a13,13,0,0,0,6.36,1.73,9,9,0,0,0,6.69-2.6,9.35,9.35,0,0,0,2.55-6.84,9.49,9.49,0,0,0-2.71-7A9.2,9.2,0,0,0,246,431.6,12.56,12.56,0,0,0,239.89,433.3Z" transform="translate(0)"/><path class="cls-2" d="M280,429.64l-17.25,34.84h-2.52l8.06-16.28-9.71-18.57h2.58l8.36,16.09,8-16.09Z" transform="translate(0)"/><path class="cls-2" d="M351.54,420.17v3a26.47,26.47,0,0,0-12.47-3.38,14.7,14.7,0,0,0-10.9,4.43,15.11,15.11,0,0,0-4.38,11.07,14.82,14.82,0,0,0,4.41,11,15.37,15.37,0,0,0,11.25,4.33,26.81,26.81,0,0,0,12.45-3.58v2.81a26.35,26.35,0,0,1-12.4,3.28A18.44,18.44,0,0,1,326.18,448a17.93,17.93,0,0,1,.11-25.61,18.16,18.16,0,0,1,12.95-5.16A29.45,29.45,0,0,1,351.54,420.17Z" transform="translate(0)"/><path class="cls-2" d="M365.94,429.19a11.19,11.19,0,0,1,8.35,3.43,12.6,12.6,0,0,1,0,17.1,11.94,11.94,0,0,1-16.73,0,12.53,12.53,0,0,1,0-17.1A11.27,11.27,0,0,1,365.94,429.19Zm0,21.54a8.62,8.62,0,0,0,6.49-2.72,10.24,10.24,0,0,0,0-13.66,8.57,8.57,0,0,0-6.47-2.75,8.67,8.67,0,0,0-6.52,2.73,10.25,10.25,0,0,0,0,13.69A8.69,8.69,0,0,0,365.94,450.73Z" transform="translate(0)"/><path class="cls-2" d="M398.25,452.69v-3.81h-.1a10.8,10.8,0,0,1-3.29,3.28,8.5,8.5,0,0,1-4.3,1,8.36,8.36,0,0,1-6.14-2.41,9.16,9.16,0,0,1-2.43-6.81V429.64h2.46v14.23a7,7,0,0,0,1.75,5,6,6,0,0,0,4.56,1.83,7.34,7.34,0,0,0,4.1-1.1,12.27,12.27,0,0,0,3.39-3.81V429.64h2.46v23Z" transform="translate(0)"/><path class="cls-2" d="M408.57,429.64v4h.1q2.88-4.46,7.59-4.46a8.11,8.11,0,0,1,6.24,2.5,9.8,9.8,0,0,1,2.33,6.94v14.05h-2.46V439.56q0-8-6.26-8-4.58,0-7.54,4.93v16.16h-2.46v-23Z" transform="translate(0)"/><path class="cls-2" d="M442.91,431.15v2.66a11.69,11.69,0,0,0-6.31-2.35,5.5,5.5,0,0,0-3.51,1.12,3.41,3.41,0,0,0-1.43,2.77,3.21,3.21,0,0,0,.87,2.16q.87,1,4.78,2.5t5.12,3.14a6,6,0,0,1,1.2,3.63,5.7,5.7,0,0,1-2.18,4.52,8.06,8.06,0,0,1-5.38,1.84,13.11,13.11,0,0,1-6.91-2.1v-2.4a16.2,16.2,0,0,0,7.24,2.1,5.31,5.31,0,0,0,3.49-1.13,3.57,3.57,0,0,0,1.37-2.88,3.29,3.29,0,0,0-.89-2.22q-.89-1-4.81-2.57t-5.08-3.07a5.4,5.4,0,0,1-1.17-3.37,5.66,5.66,0,0,1,2.17-4.47,7.87,7.87,0,0,1,5.27-1.84A12.34,12.34,0,0,1,442.91,431.15Z" transform="translate(0)"/><path class="cls-2" d="M467,440.31H448.85a9.54,9.54,0,0,0-.08,1.2,8.77,8.77,0,0,0,2.75,6.54,9,9,0,0,0,6.51,2.68,13.43,13.43,0,0,0,8.57-3.43v2.78a14.15,14.15,0,0,1-8.87,3.06,10.83,10.83,0,0,1-8.24-3.46,12.31,12.31,0,0,1-3.26-8.79,12,12,0,0,1,3-8.38,10.27,10.27,0,0,1,14.8-.33A11.06,11.06,0,0,1,467,440.31Zm-17.83-2h14.93q-1.3-6.74-7.29-6.74a7.29,7.29,0,0,0-4.9,1.77A8.65,8.65,0,0,0,449.18,438.33Z" transform="translate(0)"/><path class="cls-2" d="M473.8,417.7v35h-2.48v-35Z" transform="translate(0)"/><path class="cls-2" d="M482.42,417.7v35h-2.48v-35Z" transform="translate(0)"/><path class="cls-2" d="M491,417.7v4.21h-2.48V417.7Zm0,11.95v23h-2.48v-23Z" transform="translate(0)"/><path class="cls-2" d="M499.23,429.64v4h.1q2.88-4.46,7.59-4.46a8.11,8.11,0,0,1,6.24,2.5,9.8,9.8,0,0,1,2.33,6.94v14.05H513V439.56q0-8-6.26-8-4.58,0-7.54,4.93v16.16h-2.46v-23Z" transform="translate(0)"/><path class="cls-2" d="M539.1,429.64v2h-5.24q3.18,2.91,3.18,6.11a7.51,7.51,0,0,1-1.24,4.56,7.4,7.4,0,0,1-3,2.44,30.1,30.1,0,0,1-4.57,1.5,10.08,10.08,0,0,0-3.58,1.39,2,2,0,0,0-.73,1.5,1.83,1.83,0,0,0,.94,1.6q.94.6,5.84.88t6.6,1.88a6,6,0,0,1-1,9.18,13.76,13.76,0,0,1-7.59,1.79q-4.83,0-7.46-1.69a5.12,5.12,0,0,1-2.63-4.47q0-4.51,6.71-5.59v-.1q-3.73-.88-3.73-3.28t4.61-3.76v-.1a8.57,8.57,0,0,1-4.6-3,8,8,0,0,1,1-10.57q2.53-2.29,7.26-2.29Zm-10.22,32.79a11.35,11.35,0,0,0,5.7-1.23A3.66,3.66,0,0,0,536.7,458q0-4.06-7.34-4.06-8.37,0-8.37,4.26T528.88,462.43ZM528.53,444a6.2,6.2,0,0,0,6.16-6.16,5.85,5.85,0,0,0-1.82-4.32,6,6,0,0,0-4.4-1.79,5.86,5.86,0,0,0-4.31,1.75,5.8,5.8,0,0,0-1.75,4.26,6.12,6.12,0,0,0,1.78,4.43A5.82,5.82,0,0,0,528.53,444Z" transform="translate(0)"/></g><path class="cls-2" d="M38.72,335.83l25.69-31.41H69.7V372H64.43v-60L38.7,343.68,12.88,312.07v60H7.65V304.42h5.23Z" transform="translate(0)"/><path class="cls-2" d="M115.4,327.51,82.07,394.84H77.21l15.57-31.45L74,327.51h5L95.15,358.6l15.39-31.09Z" transform="translate(0)"/><path class="cls-2" d="M159.05,304.42v4.36H133.69V372h-5.28V308.78H103v-4.36Z" transform="translate(0)"/><path class="cls-2" d="M169.22,304.42v8.13h-4.79v-8.13Zm0,23.09V372h-4.79V327.51Z" transform="translate(0)"/><path class="cls-2" d="M182.87,327.51v7.84h.19q5.42-8.71,14.18-8.71,10.21,0,14.38,10.7,6.29-10.7,15.49-10.7a14.06,14.06,0,0,1,11.18,4.94q4.26,4.94,4.26,13.12V372h-4.74V346.78q0-7.21-3-11.35a10,10,0,0,0-8.57-4.14,11,11,0,0,0-7.16,2.47,29.73,29.73,0,0,0-6.29,7.94V372h-4.79V346.68q0-7.41-3.17-11.4a10.29,10.29,0,0,0-8.5-4q-7.74,0-13.41,9.54V372h-4.74V327.51Z" transform="translate(0)"/><path class="cls-2" d="M288.74,348.13H253.65a18.74,18.74,0,0,0-.14,2.32,17,17,0,0,0,5.32,12.63,17.45,17.45,0,0,0,12.58,5.18q8.47,0,16.55-6.63V367a27.34,27.34,0,0,1-17.13,5.91,20.94,20.94,0,0,1-15.93-6.68q-6.29-6.68-6.29-17,0-9.78,5.81-16.19a19.84,19.84,0,0,1,28.61-.63Q288.74,338.21,288.74,348.13Zm-34.46-3.82h28.85q-2.52-13-14.09-13a14.1,14.1,0,0,0-9.46,3.41A16.71,16.71,0,0,0,254.28,344.31Z" transform="translate(0)"/><path class="cls-2" d="M334.43,304.42v4.36H309.06V372h-5.28V308.78H278.42v-4.36Z" transform="translate(0)"/><path class="cls-2" d="M339.92,326.64a21.62,21.62,0,0,1,16.14,6.63,24.34,24.34,0,0,1,0,33,23.08,23.08,0,0,1-32.33,0,24.21,24.21,0,0,1,0-33A21.77,21.77,0,0,1,339.92,326.64Zm0,41.63A16.65,16.65,0,0,0,352.46,363a19.8,19.8,0,0,0,0-26.41,16.57,16.57,0,0,0-12.51-5.32,16.76,16.76,0,0,0-12.61,5.28,19.82,19.82,0,0,0,0,26.45A16.79,16.79,0,0,0,339.92,368.27Z" transform="translate(0)"/><path class="cls-2" d="M430,304.42V372h-5.28V340H379.64v32h-5.23V304.42h5.23v31.22h45.11V304.42Z" transform="translate(0)"/><path class="cls-2" d="M478,348.13H442.91a18.74,18.74,0,0,0-.14,2.32,17,17,0,0,0,5.32,12.63,17.45,17.45,0,0,0,12.58,5.18q8.47,0,16.55-6.63V367a27.34,27.34,0,0,1-17.13,5.91,20.94,20.94,0,0,1-15.93-6.68q-6.29-6.68-6.29-17,0-9.78,5.81-16.19a19.84,19.84,0,0,1,28.61-.63Q478,338.21,478,348.13Zm-34.46-3.82h28.85q-2.52-13-14.09-13a14.1,14.1,0,0,0-9.46,3.41A16.71,16.71,0,0,0,443.54,344.31Z" transform="translate(0)"/><path class="cls-2" d="M525.1,364.3v4q-6.15,4.65-9,4.65a2.4,2.4,0,0,1-2.27-1.09,12.33,12.33,0,0,1-.92-4.43q-7,5.52-13.94,5.52a11.94,11.94,0,0,1-8.52-3.29,10.58,10.58,0,0,1-3.49-8q0-7.26,6.73-11.45t19.22-4.82v-5.66q0-9.1-9.87-9.1-6.29,0-13.6,5.66v-4.89q7.55-4.74,14.38-4.74a16,16,0,0,1,10,3q3.92,3,3.92,8.64V366q0,2.28,1.06,2.28Q520.11,368.27,525.1,364.3Zm-12.2-1.06V349.34q-9.15-.34-15.17,3.22t-6,9.08a6.59,6.59,0,0,0,2.52,5.23,9.4,9.4,0,0,0,6.29,2.13Q506.61,369,512.9,363.24Z" transform="translate(0)"/><path class="cls-2" d="M535.41,304.42V372h-4.79V304.42Z" transform="translate(0)"/><line class="cls-3" y1="394.4" x2="536.66" y2="394.4"/><line class="cls-3" x1="300.75" y1="452.6" x2="300.75" y2="394.95"/><g class="cls-4"><path class="cls-2" d="M276.06,15c-3.92,7.8-1.33,40.88-1.33,40.88a26.08,26.08,0,0,0-11.15-17.34c10.13,11,9.76,18.36,9.76,18.36-4-9.47-17.2-15.52-17.2-15.52C246.39,38.33,248.43,27,248.43,27a5,5,0,0,0-2-3.86,35.84,35.84,0,0,1,19.24,6.12,31.29,31.29,0,0,1-.87-5.76c-.44-7.07,4.44-12.68,4.44-12.68A30,30,0,0,0,276.06,0M261.23,64.67c5.69,8.7,3,24.59,3,24.59,15.08-37.34-8.39-42.76-8.39-42.76-4.32-1.8-5.39-4.39-5.39-4.39C243.81,48.37,253,60.28,253,60.28c13.77,18.56,5.79,39.12,5.79,39.12C268.3,84.23,261.23,64.67,261.23,64.67Zm-58.91,119c-2.18-23.78,24-49.51,24-49.51C276.18,80.05,239,48.42,239,48.42c-13.65-10.22-21.76,3.66-21.76,3.66-4.74,7.83,2.23,14.85,2.23,14.85C232.88,75.8,236.57,63,236.57,63c-3.94,4.68-8.11.34-8.11.34-3.66-4.06,2.19-8.17,2.19-8.17,8.9-4.86,14,5.87,14,5.87,14.17,27.52-12.55,52.62-12.55,52.62-19.23,19-31.17,43.71-31.17,43.71-18.82,48.37,21.65,64.35,21.65,64.35A45,45,0,0,1,202.32,183.67Zm17,29c-5.12-4.49-8.14-12-8.14-12-7.93-21.4,4.8-33.72,4.8-33.72,23.8-23.38,43.85-5.43,43.85-5.43,13.88,10.54,7.73,27,7.73,27a23.32,23.32,0,0,1-19.73,13.88c-15.24.1-20.25-13.78-20.25-13.78,2.71,27.77,26.62,21.61,26.62,21.61,20.25-3.45,20.67-25.68,20.67-25.68-3-37.16-39.46-30.69-39.46-30.69C220.53,155.94,214.32,164,214.32,164c3.83-8.16,9.85-17.29,18.75-27.47,0,0,34.66-36.14,21-68.2,0,0,9.29,17.65-9.58,46.8-5.95,9.19-28.06,31.7-34.57,45.78a56.79,56.79,0,0,0-5.44,18.93s-4.76,33.39,27.92,41.61C225.85,219.08,219.34,212.63,219.34,212.63ZM230.26,85.91l-4.78,26.59c.23-2.68,8.51-11.78,8.51-11.78,7-6.76,2.45-16.8,2.45-16.8a29.88,29.88,0,0,1-3.62-9.56,20,20,0,0,1-8,7.58c-6.95,4.42-4.67,15.63-4.67,15.63a32.24,32.24,0,0,1,2,14.93Zm-18.33,23.68c3.79,10.35-1.14,27-1.14,27,2.47-4.75,5.66-17,5.66-17,2.95-12.51,0-19.67,0-19.67-3.73-10.23-10-13.12-10-13.12,1.44,3.13-2.16,8.42-2.16,8.42-4.38,5.72,3.18,17.57,3.18,17.57,4,8.3,2.95,18.53,2.95,18.53C213.56,125.17,211.93,109.59,211.93,109.59Zm-10.35,42A36.55,36.55,0,0,0,208,126.85s-2.35-16.24-15.22-11.07c0,0-8.3,3.43-5.6,11.91,0,0,4.87,10.23,12.88,3.49,0,0-3.25,1.44-5.35-2.29,0,0-1.44-4.09,2.41-4.87,0,0,5.72-2.11,7.52,6.2C204.65,130.22,206.16,142.74,201.59,151.58Zm-9.9-5.2c-5.22,2.75-7.58,8.53-7.58,8.53-5.93,15.18,6.65,33.91,6.65,33.91-5.28-15.91-.72-25.16-.72-25.16-3.4,23.35,7.41,34.05,7.41,34.05a49.43,49.43,0,0,1-4.37-23.21c-.29-6.58,5.06-17,5.06-17,6.51-12.36-.69-17.21-.69-17.21C197.77,142.48,191.69,146.39,191.69,146.39Zm70.83,35.86c-2.33,17.4-20.64,15.47-20.64,15.47,20.24,5.35,23.48-14.15,23.48-14.15,1.62-24.91-23-24.89-23-24.89C265.37,162.65,262.52,182.25,262.52,182.25Zm-20.64-16.9c-23.17-4.25-29.24,11.33-29.24,11.33,17.18-16,27.62-4.35,27.62-4.35,10.22,8.6,5.57,21.86,5.57,21.86,13.66-2.93,11.33-18,11.33-18C254.73,166.06,246.94,163,246.94,163c-15.18-7.08-26.92,4.25-26.92,4.25C232.57,160,241.88,165.35,241.88,165.35ZM217.19,186.7s1.1,4.86,6.92,2.53c0,0,7.58-3.92,2.24-11.28,0,0-4.34-4.92-9.59-1.35,0,0-10.89,8-3.61,22a27.58,27.58,0,0,1,.48-11.67s3-8.06,7.28-4.83c0,0,2.27,2.07.48,4C221.39,186.2,220.48,187.55,217.19,186.7Zm43.34,22.88s-.69.16-3.27,1c0,0-11.35,3.85-21.3-1.61,0,0-9.81-6.17-12.54-6,0,0-4.06-.7-5.68,2.38,0,0,1.89.42,2.1,1.75,0,0,3.5,9.32,10.23,11.56,0,0,9.46,4,23.58-4.27,0,0-12.51,2.31-17.9-.91,0,0,9.18,1.75,14.86.49,0,0,6.88-1.43,9.92-4.33m-13.07,11.85s-6.34,2.81-10.89,3c0,0-6.28.81-10.15-1,0,0-7.09-2.55-11.34-.45,0,0-6.94,1.8-10,.38,0,0-5.74-2.46-6.19-4.25a25.57,25.57,0,0,0,23.28,14.7s10.3-.45,18.88-5.22c0,0,6.49-4.1,7.68-5.3,0,0,7.09-7.09,7.68-7.31,0,0-5.67,3.51-8.13,6,0,0-4.31,3.43-6.4,3.8C241.88,225.88,246.49,223.33,247.46,221.44Zm15.82,1.24c7-6.79,9.92-19.83,9.92-19.83a44.88,44.88,0,0,1-18.8,21c-7.76,4.33-6.27,13.13-6.27,13.13a7.32,7.32,0,0,1-1.94,5.74c31.71-8.51,29.54-44.1,29.54-44.1C270.74,220.36,263.28,222.67,263.28,222.67Zm5.17,7.06s-3.64,6.59-6.63,8.57c0,0-6.73,4.75-7.33,10.74,0,0-.73,2.85-2.43,3.27,0,0-.21,1.41,9.1-1.86,0,0,8.68-4.45,8-20.3,0,0-1.47,11.15-9.35,16.26C259.83,246.42,266.61,237,268.45,229.74ZM260,261.67a2.31,2.31,0,0,1-2.44-2.72c1.66-3.82,4-.55,4-.55-.56-5.8-6.54-3-6.54-3-2.76,1.06-2.76,4.65-2.76,4.65a6.15,6.15,0,0,0,5.53,5.67c10.6-1.15,10.87-15.85,10.87-15.85C264.9,262.45,260,261.67,260,261.67Zm16-12.77c.12-.17-3.15-10.7-.59-29.92,0,0-2.73,10.54-3.88,12.67,0,0-4.59,11.36-1.26,19,0,0,4.95,8.14,5.72,14M265.43,97.48a23.75,23.75,0,0,0-6.76,4.58c-2.5,2.05-7.38,15.39-7.38,15.39C248,128,237.43,138.93,237.43,138.93c5.34-2.19,17.72-16.48,17.72-16.48-1.92,6.91-27.84,26.95-27.84,26.95a247.59,247.59,0,0,0,24.08-16.89c6.22-3.9,17.24-17,17.24-17,12.31-17.72,3.76-30.78,3.76-30.78A13.31,13.31,0,0,1,265.43,97.48Zm1.14,34.13c-2.19,1.64-16.07,7.46-16.07,7.46,2.19-.68,6.82,0,6.82,0,11.78,2.06,15.55-7.49,15.55-7.49a12.22,12.22,0,0,1,2.41-3.25c-2.38.34-7.27-1.64-7.27-1.64-6.36-1.92-9.64,2.53-9.64,2.53a67.64,67.64,0,0,1-8.48,7.73A98.19,98.19,0,0,1,266.57,131.61ZM253.66,148c-12-2-17.32,2.74-17.32,2.74,9-2,19.15,3.42,19.15,3.42,8.55,5.27,13.61-1.3,13.61-1.3,1.44-1.92,4.58-1.23,4.58-1.23-8.34-10.6-18.88-9.92-18.88-9.92-12.79.07-22.91,9.44-22.91,9.44C247.55,143,253.66,148,253.66,148ZM276.18,15c3.92,7.8,1.33,40.88,1.33,40.88a26.08,26.08,0,0,1,11.15-17.34c-10.13,11-9.76,18.36-9.76,18.36,4-9.47,17.2-15.52,17.2-15.52,9.76-3.06,7.72-14.35,7.72-14.35a5,5,0,0,1,2-3.86,35.84,35.84,0,0,0-19.24,6.12,31.29,31.29,0,0,0,.87-5.76c.44-7.07-4.44-12.68-4.44-12.68A30,30,0,0,1,276.18,0m17.28,99.4s-8-20.56,5.79-39.12c0,0,9.18-11.91,2.53-18.16,0,0-1.06,2.59-5.39,4.39,0,0-23.47,5.42-8.39,42.76,0,0-2.67-15.89,3-24.59C291,64.67,284,84.23,293.46,99.4Zm36.23,122.32s40.47-16,21.65-64.35c0,0-11.94-24.69-31.17-43.71,0,0-26.71-25.09-12.55-52.62,0,0,5.06-10.73,14-5.87,0,0,5.85,4.11,2.19,8.17,0,0-4.17,4.34-8.11-.34,0,0,3.69,12.82,17.08,3.94,0,0,7-7,2.23-14.85,0,0-8.11-13.88-21.76-3.66,0,0-37.16,31.63,12.74,85.74,0,0,26.14,25.73,24,49.51A45,45,0,0,1,329.69,221.71Zm-9.91-.28c32.68-8.22,27.92-41.61,27.92-41.61a56.79,56.79,0,0,0-5.44-18.93c-6.5-14.07-28.62-36.59-34.57-45.78-18.87-29.15-9.58-46.8-9.58-46.8-13.61,32.06,21,68.2,21,68.2,8.91,10.17,14.92,19.31,18.75,27.47,0,0-6.21-8-21.09-10.13,0,0-36.43-6.47-39.46,30.69,0,0,.42,22.24,20.67,25.68,0,0,23.91,6.16,26.62-21.61,0,0-5,13.88-20.25,13.78a23.32,23.32,0,0,1-19.73-13.88s-6.16-16.49,7.73-27c0,0,20-18,43.85,5.43,0,0,12.74,12.32,4.8,33.72,0,0-3,7.52-8.14,12C332.91,212.63,326.39,219.08,319.78,221.44ZM330.15,112.5a32.24,32.24,0,0,1,2-14.93s2.28-11.21-4.67-15.63a20,20,0,0,1-8-7.58,29.88,29.88,0,0,1-3.62,9.56s-4.55,10,2.45,16.8c0,0,8.28,9.1,8.51,11.78L322,85.91Zm11.67,18.81s-1.08-10.23,2.95-18.53c0,0,7.56-11.85,3.18-17.57,0,0-3.6-5.29-2.16-8.42,0,0-6.26,2.89-10,13.12,0,0-2.95,7.16,0,19.67,0,0,3.19,12.21,5.66,17,0,0-4.93-16.61-1.14-27C340.31,109.59,338.69,125.17,341.82,131.31Zm5.78-1.08c1.8-8.3,7.52-6.2,7.52-6.2,3.85.78,2.41,4.87,2.41,4.87-2.11,3.73-5.35,2.29-5.35,2.29,8,6.74,12.88-3.49,12.88-3.49,2.71-8.48-5.6-11.91-5.6-11.91-12.88-5.17-15.22,11.07-15.22,11.07a36.55,36.55,0,0,0,6.44,24.73C346.09,142.74,347.59,130.22,347.59,130.22Zm7.21,10.09s-7.2,4.84-.69,17.21c0,0,5.35,10.41,5.06,17a49.43,49.43,0,0,1-4.37,23.21s10.8-10.7,7.41-34.05c0,0,4.55,9.25-.72,25.16,0,0,12.58-18.73,6.65-33.91,0,0-2.36-5.78-7.58-8.53C360.56,146.39,354.48,142.48,354.8,140.31Zm-44.94,18.36s-24.59,0-23,24.89c0,0,3.24,19.5,23.48,14.15,0,0-18.31,1.94-20.64-15.47C289.72,182.25,286.87,162.65,309.86,158.67Zm22.36,8.6s-11.74-11.33-26.92-4.25c0,0-7.79,3-10.22,13.15,0,0-2.33,15.08,11.33,18,0,0-4.65-13.26,5.57-21.86,0,0,10.44-11.7,27.62,4.35,0,0-6.07-15.58-29.24-11.33C310.37,165.35,319.67,160,332.22,167.28Zm-1.37,18.92c-1.78-2,.48-4,.48-4,4.29-3.23,7.28,4.83,7.28,4.83a27.58,27.58,0,0,1,.48,11.67c7.28-14.06-3.61-22-3.61-22-5.25-3.57-9.59,1.35-9.59,1.35-5.34,7.35,2.24,11.28,2.24,11.28,5.82,2.33,6.92-2.53,6.92-2.53C331.77,187.55,330.85,186.2,330.85,186.2Zm-39.14,23.38c3,2.9,9.92,4.33,9.92,4.33,5.68,1.26,14.86-.49,14.86-.49-5.4,3.22-17.9.91-17.9.91,14.12,8.27,23.58,4.27,23.58,4.27C328.9,216.37,332.4,207,332.4,207c.21-1.33,2.1-1.75,2.1-1.75-1.61-3.08-5.68-2.38-5.68-2.38-2.73-.14-12.54,6-12.54,6-10,5.47-21.3,1.61-21.3,1.61-2.58-.81-3.27-1-3.27-1m18.65,16.3c-2.09-.37-6.4-3.8-6.4-3.8-2.46-2.54-8.13-6-8.13-6,.6.22,7.68,7.31,7.68,7.31,1.19,1.19,7.68,5.3,7.68,5.3,8.58,4.77,18.88,5.22,18.88,5.22a25.57,25.57,0,0,0,23.28-14.7c-.45,1.79-6.19,4.25-6.19,4.25-3.06,1.42-10-.38-10-.38-4.25-2.09-11.34.45-11.34.45-3.87,1.78-10.15,1-10.15,1-4.55-.22-10.89-3-10.89-3C305.76,223.33,310.37,225.88,310.37,225.88Zm-33.86-27.23s-2.16,35.59,29.54,44.1a7.32,7.32,0,0,1-1.94-5.74s1.49-8.8-6.27-13.13a44.88,44.88,0,0,1-18.8-21s2.91,13,9.92,19.83C289,222.67,281.51,220.36,276.51,198.65Zm15.9,47.77c-7.88-5.11-9.35-16.26-9.35-16.26-.65,15.85,8,20.3,8,20.3,9.31,3.27,9.1,1.86,9.1,1.86-1.7-.41-2.43-3.27-2.43-3.27-.61-6-7.33-10.74-7.33-10.74-3-2-6.63-8.57-6.63-8.57C285.64,237,292.41,246.42,292.41,246.42Zm-8.8,3.41s.28,14.7,10.87,15.85A6.15,6.15,0,0,0,300,260s0-3.59-2.76-4.65c0,0-6-2.76-6.54,3,0,0,2.3-3.27,4,.55a2.31,2.31,0,0,1-2.44,2.72S287.34,262.45,283.61,249.83Zm-7.43,14.79c.78-5.84,5.72-14,5.72-14,3.33-7.64-1.26-19-1.26-19-1.15-2.13-3.88-12.67-3.88-12.67,2.57,19.22-.7,29.76-.59,29.92m3.68-164.14s-8.55,13.06,3.76,30.78c0,0,11,13.06,17.24,17a247.59,247.59,0,0,0,24.08,16.89s-25.92-20-27.84-26.95c0,0,12.38,14.3,17.72,16.48,0,0-10.62-10.94-13.86-21.48,0,0-4.88-13.34-7.38-15.39a23.75,23.75,0,0,0-6.76-4.58A13.31,13.31,0,0,1,279.86,84.76Zm22.5,52.19a67.64,67.64,0,0,1-8.48-7.73s-3.28-4.45-9.64-2.53c0,0-4.89,2-7.27,1.64a12.22,12.22,0,0,1,2.41,3.25s3.77,9.55,15.55,7.49c0,0,4.63-.68,6.82,0,0,0-13.88-5.81-16.07-7.46A98.19,98.19,0,0,1,302.37,136.94Zm18,14.16s-10.12-9.37-22.91-9.44c0,0-10.53-.68-18.88,9.92,0,0,3.15-.69,4.58,1.23,0,0,5.06,6.57,13.61,1.3,0,0,10.19-5.4,19.15-3.42,0,0-5.3-4.72-17.32-2.74C298.59,148,304.69,143,320.36,151.1Z" transform="translate(0)"/></g><path class="cls-5" d="M216.32,186.91H204.5l30.07-88.5h13.79l30.2,88.5H266.35l-11.82-36.77-8.67-25.47c-2-5.78-3.28-11-4.6-16.15H241c-1.31,5.25-2.76,10.64-4.46,16l-8.67,25.61Z" transform="translate(0)"/><path class="cls-2" d="M253,98.41h14.58l15.1,42.81c3.68,10.9,6.7,20.62,8.93,29.81H292c2.23-8.93,5.38-18.65,9.32-29.81l15.76-42.81h14.58l5.51,88.5H326L323.78,148c-.66-12.34-1.44-27.18-1.31-38.21h-.39c-3,10.37-6.7,21.4-11.16,33.61l-15.63,42.94h-8.67l-14.31-42.15c-4.2-12.47-7.75-23.9-10.24-34.4h-.26Z" transform="translate(0)"/><path class="cls-6" d="M342.73,101.55a3.38,3.38,0,1,1-3.37-3.29A3.3,3.3,0,0,1,342.73,101.55Zm-5.91,0a2.55,2.55,0,0,0,2.56,2.62,2.52,2.52,0,0,0,2.5-2.6,2.54,2.54,0,1,0-5.07,0Zm2,1.72h-.76V100a6.67,6.67,0,0,1,1.26-.1,2,2,0,0,1,1.14.24.91.91,0,0,1,.32.72.84.84,0,0,1-.68.76v0a1,1,0,0,1,.6.8,2.49,2.49,0,0,0,.24.82h-.82a2.81,2.81,0,0,1-.26-.8c-.06-.36-.26-.52-.68-.52h-.36Zm0-1.86h.36c.42,0,.76-.14.76-.48s-.22-.5-.7-.5a1.83,1.83,0,0,0-.42,0Z" transform="translate(0)"/></g></g></svg>