<svg id="Layer_1" data-name="Layer 1" xmlns="http://www.w3.org/2000/svg" viewBox="0 0 1599.33 2340.23"><defs><style>.cls-1{opacity:0.05;}.cls-2{fill:#2e193f;}</style></defs><title>MyTimeToHeal-damask-centred</title><g class="cls-1"><path class="cls-2" d="M772.13,655C756.94,685.27,767,813.59,767,813.59c-7.07-45.51-43.25-67.27-43.25-67.27C763,789,761.6,817.55,761.6,817.55c-15.55-36.74-66.71-60.2-66.71-60.2-37.87-11.87-30-55.68-30-55.68,0-9.61-7.91-15-7.91-15,43.53.57,74.62,23.74,74.62,23.74-2.26-5.94-3.39-22.33-3.39-22.33-1.7-27.42,17.24-49.18,17.24-49.18,20.63-21.76,26.64-42.11,26.64-42.11M714.58,847.69c22.06,33.76,11.7,95.38,11.7,95.38,58.49-144.84-32.54-165.86-32.54-165.86-16.78-7-20.9-17-20.9-17-25.81,24.26,9.81,70.46,9.81,70.46,53.42,72,22.45,151.75,22.45,151.75C742,923.56,714.58,847.69,714.58,847.69ZM486.05,1309.3c-8.44-92.23,93-192.06,93-192.06,193.57-209.89,49.42-332.59,49.42-332.59C575.48,745,544,798.83,544,798.83c-18.39,30.36,8.64,57.61,8.64,57.61,51.94,34.43,66.25-15.29,66.25-15.29-15.29,18.17-31.46,1.33-31.46,1.33-14.18-15.73,8.51-31.69,8.51-31.69,34.54-18.84,54.17,22.77,54.17,22.77,55,106.77-48.67,204.11-48.67,204.11-74.58,73.79-120.9,169.57-120.9,169.57-73,187.63,84,249.65,84,249.65C479.77,1399.58,486.05,1309.3,486.05,1309.3Zm66,112.35c-19.84-17.41-31.59-46.57-31.59-46.57-30.78-83,18.63-130.81,18.63-130.81,92.33-90.71,170.09-21.06,170.09-21.06,53.86,40.9,30,104.89,30,104.89-25.11,53.46-76.54,53.86-76.54,53.86-59.13.4-78.56-53.46-78.56-53.46,10.53,107.72,103.27,83.83,103.27,83.83,78.56-13.36,80.18-99.62,80.18-99.62-11.74-144.17-153.08-119.06-153.08-119.06-57.74,8.09-81.81,39.28-81.81,39.28,14.87-31.66,38.2-67.09,72.75-106.55,0,0,134.44-140.2,81.65-264.56,0,0,36,68.48-37.16,181.55C626.8,1079,541,1166.35,515.78,1220.95c0,0-16,29.29-21.09,73.43,0,0-18.45,129.53,108.31,161.43C577.35,1446.66,552.08,1421.65,552.08,1421.65Zm42.38-491.59-18.55,103.16c.9-10.41,33-45.7,33-45.7,27.15-26.24,9.5-65.16,9.5-65.16-10.82-17.62-14-37.1-14-37.1a77.44,77.44,0,0,1-31.22,29.41c-27,17.15-18.1,60.63-18.1,60.63,11.76,29,7.69,57.92,7.69,57.92Zm-71.1,91.86c14.7,40.15-4.43,104.56-4.43,104.56,9.57-18.44,21.94-65.82,21.94-65.82,11.44-48.55,0-76.32,0-76.32-14.47-39.68-38.74-50.88-38.74-50.88,5.6,12.14-8.37,32.68-8.37,32.68-17,22.17,12.34,68.15,12.34,68.15,15.64,32.21,11.44,71.89,11.44,71.89C529.66,1082.37,523.36,1021.92,523.36,1021.92Zm-40.15,162.91s31-39.44,25-95.93c0,0-9.1-63-59.05-42.95,0,0-32.21,13.3-21.71,46.21,0,0,18.91,39.68,49.95,13.54,0,0-12.6,5.6-20.77-8.87,0,0-5.6-15.87,9.34-18.91,0,0,22.17-8.17,29.18,24C495.12,1102,501,1150.52,483.22,1184.83Zm-38.39-20.16c-20.24,10.66-29.41,33.09-29.41,33.09-23,58.9,25.8,131.54,25.8,131.54-20.47-61.7-2.8-97.6-2.8-97.6-13.18,90.59,28.73,132.1,28.73,132.1-21.19-44.59-17-90-17-90-1.12-25.52,19.63-65.91,19.63-65.91,25.24-48-2.68-66.75-2.68-66.75C468.4,1149.53,444.83,1164.67,444.83,1164.67ZM719.61,1303.8c-9,67.51-80.08,60-80.08,60,78.5,20.75,91.07-54.9,91.07-54.9,6.28-96.62-89.1-96.56-89.1-96.56C730.67,1227.75,719.61,1303.8,719.61,1303.8Zm-80.08-65.55c-89.89-16.49-113.44,44-113.44,44,66.64-62.25,107.16-16.88,107.16-16.88,39.64,33.36,21.59,84.79,21.59,84.79,53-11.38,44-69.87,44-69.87-9.42-39.25-39.64-51-39.64-51-58.88-27.48-104.41,16.49-104.41,16.49C603.42,1217.44,639.53,1238.25,639.53,1238.25Zm-95.78,82.82s4.27,18.84,26.86,9.81c0,0,29.42-15.21,8.69-43.75,0,0-16.83-19.07-37.21-5.24,0,0-42.25,31-14,85.51,0,0-4.67-24.1,1.87-45.27,0,0,11.59-31.26,28.23-18.73,0,0,8.79,8,1.87,15.71C560.05,1319.11,556.5,1324.34,543.75,1321.07Zm168.12,88.75s-2.67.62-12.68,3.76c0,0-44,14.94-82.62-6.26,0,0-38.06-23.92-48.66-23.38,0,0-15.77-2.72-22,9.24,0,0,7.34,1.63,8.16,6.8,0,0,13.59,36.16,39.69,44.85,0,0,36.7,15.5,91.48-16.58,0,0-48.53,9-69.46-3.53,0,0,35.61,6.8,57.63,1.9,0,0,26.67-5.55,38.49-16.8m-50.7,46s-24.6,10.88-42.26,11.75c0,0-24.36,3.15-39.36-3.76,0,0-27.49-9.88-44-1.75,0,0-26.92,7-38.78,1.47,0,0-22.29-9.55-24-16.5,0,0,23.44,56.73,90.3,57,0,0,39.94-1.74,73.22-20.26,0,0,25.18-15.92,29.81-20.55,0,0,27.49-27.49,29.81-28.36,0,0-22,13.6-31.55,23.44,0,0-16.72,13.31-24.83,14.76C639.53,1473.06,657.41,1463.16,661.17,1455.81Zm61.36,4.8c27.21-26.34,38.49-76.93,38.49-76.93-25.18,57.65-72.93,81.57-72.93,81.57-30.1,16.79-24.31,50.94-24.31,50.94.87,14.76-7.52,22.29-7.52,22.29,123-33,114.61-171.06,114.61-171.06C751.47,1451.62,722.53,1460.61,722.53,1460.61ZM742.6,1488s-14.12,25.56-25.74,33.24c0,0-26.09,18.41-28.45,41.66,0,0-2.83,11.06-9.44,12.67,0,0-.8,5.46,35.31-7.23,0,0,33.68-17.26,31.18-78.74,0,0-5.72,43.25-36.28,63.09C709.17,1552.72,735.45,1516.26,742.6,1488Zm-32.71,123.86c-11.08-.36-9.47-10.55-9.47-10.55,6.43-14.83,15.37-2.14,15.37-2.14-2.17-22.49-25.38-11.8-25.38-11.8-10.72,4.11-10.72,18.05-10.72,18.05,3,21.09,21.45,22,21.45,22,41.11-4.47,42.18-61.48,42.18-61.48C728.83,1614.92,709.89,1611.88,709.89,1611.88Zm62.24-49.54c.45-.64-12.23-41.52-2.27-116.08,0,0-10.59,40.88-15,49.14,0,0-17.79,44.06-4.87,73.71,0,0,19.19,31.56,22.2,54.23m-41.25-648.4a92.14,92.14,0,0,0-26.23,17.78c-9.7,8-28.64,59.7-28.64,59.7-12.58,40.86-53.76,83.32-53.76,83.32,20.7-8.49,68.72-63.95,68.72-63.95-7.43,26.8-108,104.54-108,104.54,44-26,93.4-65.54,93.4-65.54,24.15-15.12,66.86-65.8,66.86-65.8,47.76-68.72,14.59-119.4,14.59-119.4C759.44,961.67,730.89,974.94,730.89,974.94Zm4.41,132.4c-8.49,6.37-62.35,28.92-62.35,28.92,8.49-2.65,26.44,0,26.44,0,45.71,8,60.32-29.05,60.32-29.05,6.1-10.22,9.35-12.6,9.35-12.6-9.22,1.33-28.19-6.37-28.19-6.37-24.68-7.43-37.41,9.82-37.41,9.82-18.57,19.63-32.9,30-32.9,30C708.26,1112.59,735.3,1107.34,735.3,1107.34Zm-50.09,63.42c-46.64-7.69-67.19,10.61-67.19,10.61,34.76-7.69,74.29,13.27,74.29,13.27,33.17,20.43,52.8-5,52.8-5,5.57-7.43,17.78-4.77,17.78-4.77-32.37-41.12-73.23-38.48-73.23-38.48-49.62.27-88.89,36.62-88.89,36.62C661.53,1151.39,685.21,1170.76,685.21,1170.76ZM772.6,655c15.19,30.24,5.16,158.57,5.16,158.57,7.07-45.51,43.25-67.27,43.25-67.27-39.29,42.68-37.87,71.23-37.87,71.23,15.55-36.74,66.71-60.2,66.71-60.2,37.87-11.87,30-55.68,30-55.68,0-9.61,7.91-15,7.91-15-43.53.57-74.62,23.74-74.62,23.74,2.26-5.94,3.39-22.33,3.39-22.33,1.7-27.42-17.24-49.18-17.24-49.18-20.63-21.76-26.64-42.11-26.64-42.11m67,385.58s-31-79.75,22.45-151.75c0,0,35.62-46.2,9.81-70.46,0,0-4.13,10.07-20.9,17,0,0-91,21-32.54,165.86,0,0-10.35-61.63,11.7-95.38C830.15,847.69,802.73,923.56,839.64,982.38Zm140.54,474.5s157-62,84-249.65c0,0-46.32-95.78-120.9-169.57,0,0-103.63-97.35-48.67-204.11,0,0,19.63-41.61,54.17-22.77,0,0,22.69,16,8.51,31.69,0,0-16.18,16.84-31.46-1.33,0,0,14.32,49.72,66.25,15.29,0,0,27-27.25,8.64-57.61,0,0-31.46-53.84-84.42-14.18,0,0-144.15,122.7,49.42,332.59,0,0,101.41,99.83,93,192.06C1058.68,1309.3,1065,1399.58,980.17,1456.88Zm-38.44-1.08c126.76-31.9,108.31-161.43,108.31-161.43-5.12-44.14-21.09-73.43-21.09-73.43-25.22-54.59-111-141.94-134.09-177.58-73.2-113.08-37.16-181.55-37.16-181.55-52.79,124.36,81.65,264.56,81.65,264.56,34.55,39.46,57.87,74.89,72.75,106.55,0,0-24.07-31.19-81.81-39.28,0,0-141.34-25.11-153.08,119.06,0,0,1.62,86.26,80.18,99.62,0,0,92.74,23.89,103.27-83.83,0,0-19.44,53.86-78.56,53.46,0,0-51.43-.4-76.54-53.86,0,0-23.89-64,30-104.89,0,0,77.75-69.66,170.09,21.06,0,0,49.41,47.79,18.63,130.81,0,0-11.74,29.16-31.59,46.57C992.65,1421.65,967.38,1446.66,941.73,1455.81Zm40.21-422.59s-4.07-29,7.69-57.92c0,0,8.86-43.48-18.1-60.63a77.44,77.44,0,0,1-31.22-29.41s-3.21,19.48-14,37.1c0,0-17.65,38.91,9.5,65.16,0,0,32.13,35.29,33,45.7L950.27,930.06Zm45.26,73s-4.2-39.68,11.44-71.89c0,0,29.35-46,12.34-68.15,0,0-14-20.54-8.37-32.68,0,0-24.27,11.2-38.74,50.88,0,0-11.44,27.77,0,76.32,0,0,12.37,47.38,21.94,65.82,0,0-19.14-64.42-4.43-104.56C1021.37,1021.92,1015.07,1082.37,1027.2,1106.17Zm22.41-4.2c7-32.21,29.18-24,29.18-24,14.94,3,9.34,18.91,9.34,18.91-8.17,14.47-20.77,8.87-20.77,8.87,31,26.14,49.95-13.54,49.95-13.54,10.5-32.91-21.71-46.21-21.71-46.21-49.95-20.07-59.05,42.95-59.05,42.95-6.07,56.48,25,95.93,25,95.93C1043.77,1150.52,1049.61,1102,1049.61,1102Zm28,39.14s-27.92,18.79-2.68,66.75c0,0,20.75,40.39,19.63,65.91,0,0,4.24,45.44-17,90,0,0,41.92-41.51,28.73-132.1,0,0,17.67,35.9-2.8,97.6,0,0,48.8-72.64,25.8-131.54,0,0-9.17-22.44-29.41-33.09C1099.9,1164.67,1076.33,1149.53,1077.58,1141.12Zm-174.34,71.23s-95.38-.06-89.1,96.56c0,0,12.56,75.65,91.07,54.9,0,0-71,7.51-80.08-60C825.12,1303.8,814.06,1227.75,903.24,1212.34ZM990,1245.71s-45.53-44-104.41-16.49c0,0-30.22,11.78-39.64,51,0,0-9,58.49,44,69.87,0,0-18.06-51.42,21.59-84.79,0,0,40.51-45.37,107.16,16.88,0,0-23.55-60.45-113.44-44C905.2,1238.25,941.31,1217.44,990,1245.71Zm-5.31,73.4c-6.92-7.67,1.87-15.71,1.87-15.71,16.64-12.53,28.23,18.73,28.23,18.73,6.54,21.16,1.87,45.27,1.87,45.27,28.23-54.53-14-85.51-14-85.51-20.38-13.84-37.21,5.24-37.21,5.24-20.73,28.53,8.69,43.75,8.69,43.75,22.6,9,26.86-9.81,26.86-9.81C988.23,1324.34,984.68,1319.11,984.68,1319.11Zm-151.82,90.71c11.81,11.25,38.49,16.8,38.49,16.8,22,4.89,57.63-1.9,57.63-1.9-20.93,12.5-69.46,3.53-69.46,3.53,54.78,32.08,91.48,16.58,91.48,16.58,26.1-8.7,39.69-44.85,39.69-44.85.82-5.17,8.16-6.8,8.16-6.8-6.25-12-22-9.24-22-9.24-10.6-.54-48.66,23.38-48.66,23.38-38.6,21.2-82.62,6.26-82.62,6.26-10-3.14-12.68-3.76-12.68-3.76m72.34,63.24c-8.1-1.45-24.83-14.76-24.83-14.76-9.55-9.84-31.55-23.44-31.55-23.44,2.32.87,29.81,28.36,29.81,28.36,4.63,4.63,29.81,20.55,29.81,20.55,33.28,18.52,73.22,20.26,73.22,20.26,66.86-.29,90.3-57,90.3-57-1.74,6.95-24,16.5-24,16.5-11.87,5.5-38.78-1.47-38.78-1.47-16.5-8.12-44,1.75-44,1.75-15,6.91-39.36,3.76-39.36,3.76-17.65-.87-42.26-11.75-42.26-11.75C887.32,1463.16,905.2,1473.06,905.2,1473.06ZM773.87,1367.41s-8.39,138.07,114.61,171.06c0,0-8.39-7.52-7.52-22.29,0,0,5.79-34.15-24.31-50.94,0,0-47.75-23.92-72.93-81.57,0,0,11.29,50.6,38.49,76.93C822.2,1460.61,793.26,1451.62,773.87,1367.41Zm61.69,185.31c-30.56-19.84-36.28-63.09-36.28-63.09-2.5,61.48,31.18,78.74,31.18,78.74,36.1,12.69,35.31,7.23,35.31,7.23-6.61-1.61-9.44-12.67-9.44-12.67-2.35-23.25-28.45-41.66-28.45-41.66-11.62-7.69-25.74-33.24-25.74-33.24C809.28,1516.26,835.56,1552.72,835.56,1552.72Zm-34.14,13.23s1.07,57,42.18,61.48c0,0,18.41-.89,21.45-22,0,0,0-13.94-10.72-18.05,0,0-23.21-10.7-25.38,11.8,0,0,8.94-12.69,15.37,2.14,0,0,1.61,10.19-9.47,10.55C834.84,1611.88,815.9,1614.92,801.42,1565.94Zm-28.83,57.39c3-22.66,22.2-54.23,22.2-54.23,12.92-29.65-4.87-73.71-4.87-73.71-4.45-8.26-15-49.14-15-49.14,10,74.56-2.73,115.43-2.27,116.08m14.28-636.74s-33.17,50.68,14.59,119.4c0,0,42.72,50.68,66.86,65.8,0,0,49.35,39.54,93.4,65.54,0,0-100.56-77.74-108-104.54,0,0,48,55.46,68.72,63.95,0,0-41.18-42.45-53.76-83.32,0,0-18.94-51.74-28.64-59.7a92.14,92.14,0,0,0-26.23-17.78S785.29,961.67,786.88,925.59ZM874.17,1128s-14.33-10.35-32.9-30c0,0-12.74-17.25-37.41-9.82,0,0-19,7.69-28.19,6.37,0,0,3.25,2.39,9.35,12.6,0,0,14.62,37.05,60.32,29.05,0,0,17.95-2.65,26.44,0,0,0-53.86-22.55-62.35-28.92C809.43,1107.34,836.47,1112.59,874.17,1128ZM944,1183s-39.27-36.35-88.89-36.62c0,0-40.86-2.64-73.23,38.48,0,0,12.21-2.66,17.78,4.77,0,0,19.63,25.47,52.8,5,0,0,39.54-21,74.29-13.27,0,0-20.55-18.31-67.19-10.61C859.52,1170.76,883.19,1151.39,944,1183Z"/></g></svg>