<svg id="Layer_1" data-name="Layer 1" xmlns="http://www.w3.org/2000/svg" viewBox="0 0 1599.33 2340.23"><defs><style>.cls-1{opacity:0.05;}.cls-2{fill:#2e193f;}</style></defs><title>MyTimeToHeal-damask-centred</title><g class="cls-1"><path class="cls-2" d="M771.94,290.66c-27.3,54.35-9.27,285-9.27,285C750,493.84,685,454.73,685,454.73c70.61,76.7,68.07,128,68.07,128-27.94-66-119.88-108.2-119.88-108.2-68.07-21.33-53.84-100.07-53.84-100.07,0-17.27-14.22-26.92-14.22-26.92,78.23,1,134.1,42.67,134.1,42.67-4.06-10.67-6.1-40.13-6.1-40.13-3-49.27,31-88.39,31-88.39C761.15,222.59,771.94,186,771.94,186M668.51,636.9c39.64,60.67,21,171.42,21,171.42C794.65,548,631.06,510.23,631.06,510.23c-30.15-12.52-37.57-30.61-37.57-30.61-46.38,43.6,17.62,126.62,17.62,126.62,96,129.4,40.35,272.72,40.35,272.72C717.8,773.25,668.51,636.9,668.51,636.9ZM257.82,1466.48c-15.17-165.75,167.07-345.16,167.07-345.16,347.87-377.2,88.82-597.72,88.82-597.72C418.53,452.32,362,549.09,362,549.09c-33.05,54.55,15.53,103.53,15.53,103.53,93.34,61.87,119.07-27.48,119.07-27.48C469.11,657.8,440,627.53,440,627.53c-25.49-28.27,15.3-56.95,15.3-56.95,62.08-33.86,97.35,40.91,97.35,40.91,98.76,191.88-87.47,366.82-87.47,366.82-134,132.62-217.27,304.74-217.27,304.74-131.21,337.19,151,448.65,151,448.65C246.53,1628.73,257.82,1466.48,257.82,1466.48ZM376.48,1668.4c-35.66-31.3-56.77-83.7-56.77-83.7-55.31-149.2,33.48-235.08,33.48-235.08,165.94-163,305.67-37.85,305.67-37.85,96.8,73.51,53.86,188.5,53.86,188.5-45.12,96.07-137.55,96.8-137.55,96.8C468.91,1597.8,434,1501,434,1501c18.92,193.59,185.59,150.65,185.59,150.65,141.19-24,144.1-179,144.1-179-21.11-259.1-275.11-214-275.11-214-103.77,14.55-147,70.59-147,70.59,26.73-56.89,68.65-120.57,130.74-191.49,0,0,241.61-252,146.73-475.46,0,0,64.77,123.06-66.78,326.28-41.46,64.06-195.65,221-241,319.13,0,0-28.7,52.64-37.9,132,0,0-33.16,232.79,194.65,290.11C421.9,1713.34,376.48,1668.4,376.48,1668.4Zm76.16-883.46L419.3,970.33c1.63-18.7,59.36-82.13,59.36-82.13,48.79-47.16,17.08-117.09,17.08-117.09-19.44-31.66-25.21-66.68-25.21-66.68-22,37.41-56.11,52.86-56.11,52.86-48.45,30.82-32.53,109-32.53,109,21.14,52,13.82,104.08,13.82,104.08ZM324.87,950c26.43,72.15-8,187.92-8,187.92,17.2-33.14,39.43-118.29,39.43-118.29,20.55-87.25,0-137.16,0-137.16C330.32,811.17,286.7,791,286.7,791c10.07,21.81-15,58.72-15,58.72-30.56,39.85,22.17,122.48,22.17,122.48,28.1,57.89,20.55,129.19,20.55,129.19C336.2,1058.65,324.87,950,324.87,950ZM252.72,1242.8s55.79-70.89,44.88-172.4c0,0-16.36-113.25-106.12-77.18,0,0-57.89,23.91-39,83.05,0,0,34,71.31,89.76,24.33,0,0-22.65,10.07-37.33-15.94,0,0-10.07-28.52,16.78-34,0,0,39.85-14.68,52.43,43.2C274.12,1093.89,284.6,1181.14,252.72,1242.8Zm-69-36.22c-36.37,19.15-52.85,59.48-52.85,59.48-41.33,105.85,46.37,236.39,46.37,236.39-36.79-110.89-5-175.41-5-175.41-23.69,162.8,51.64,237.4,51.64,237.4-38.08-80.14-30.47-161.8-30.47-161.8-2-45.87,35.28-118.45,35.28-118.45,45.36-86.19-4.81-120-4.81-120C226.1,1179.35,183.73,1206.57,183.73,1206.57Zm493.81,250c-16.22,121.33-143.91,107.84-143.91,107.84,141.09,37.29,163.66-98.67,163.66-98.67,11.29-173.65-160.13-173.53-160.13-173.53C697.43,1319.93,677.55,1456.6,677.55,1456.6ZM533.64,1338.8c-161.54-29.63-203.87,79-203.87,79,119.77-111.87,192.58-30.33,192.58-30.33,71.25,60,38.8,152.37,38.8,152.37,95.23-20.46,79-125.57,79-125.57-16.93-70.54-71.25-91.71-71.25-91.71-105.81-49.38-187.64,29.63-187.64,29.63C468.74,1301.41,533.64,1338.8,533.64,1338.8ZM361.52,1487.64s7.67,33.86,48.28,17.64c0,0,52.87-27.34,15.62-78.62,0,0-30.24-34.27-66.87-9.41,0,0-75.94,55.66-25.2,153.67,0,0-8.4-43.32,3.36-81.36,0,0,20.83-56.18,50.74-33.67,0,0,15.79,14.45,3.36,28.22C390.81,1484.12,384.42,1493.52,361.52,1487.64Zm302.13,159.5s-4.8,1.12-22.79,6.76c0,0-79.11,26.86-148.48-11.25,0,0-68.4-43-87.45-42,0,0-28.34-4.89-39.57,16.61,0,0,13.19,2.93,14.66,12.21,0,0,24.43,65,71.33,80.61,0,0,66,27.85,164.4-29.8,0,0-87.21,16.12-124.83-6.35,0,0,64,12.21,103.57,3.42,0,0,47.94-10,69.17-30.2m-91.11,82.65s-44.21,19.56-75.94,21.12c0,0-43.78,5.66-70.74-6.76,0,0-49.41-17.75-79.06-3.15,0,0-48.37,12.52-69.7,2.63,0,0-40.05-17.16-43.17-29.65,0,0,42.13,101.95,162.28,102.47,0,0,71.78-3.12,131.59-36.41,0,0,45.25-28.61,53.57-36.93,0,0,49.41-49.41,53.57-51,0,0-39.53,24.45-56.69,42.13,0,0-30.06,23.93-44.62,26.53C533.64,1760.79,565.78,1743,572.54,1729.79Zm110.27,8.63C731.7,1691.09,752,1600.16,752,1600.16c-45.25,103.6-131.07,146.59-131.07,146.59-54.09,30.17-43.69,91.54-43.69,91.54,1.56,26.53-13.52,40.05-13.52,40.05,221.06-59.29,206-307.42,206-307.42C734.82,1722.25,682.81,1738.42,682.81,1738.42Zm36.06,49.25s-25.38,45.93-46.25,59.74c0,0-46.9,33.08-51.13,74.87,0,0-5.08,19.88-17,22.78,0,0-1.43,9.82,63.45-13,0,0,60.53-31,56-141.51,0,0-10.28,77.73-65.2,113.39C658.8,1903.95,706,1838.42,718.87,1787.67Zm-58.78,222.6c-19.91-.64-17-19-17-19,11.56-26.66,27.62-3.85,27.62-3.85-3.91-40.42-45.61-21.2-45.61-21.2-19.27,7.39-19.27,32.44-19.27,32.44,5.46,37.9,38.54,39.51,38.54,39.51,73.88-8,75.8-110.49,75.8-110.49C694.13,2015.73,660.08,2010.27,660.08,2010.27Zm111.86-89c.82-1.16-22-74.61-4.09-208.61,0,0-19,73.47-27,88.32,0,0-32,79.18-8.76,132.47,0,0,34.49,56.72,39.89,97.45M697.83,865.59c-29.38,13.35-47.14,31.95-47.14,31.95-17.43,14.31-51.46,107.29-51.46,107.29-22.61,73.43-96.62,149.73-96.62,149.73,37.19-15.26,123.5-114.92,123.5-114.92C612.76,1087.8,432,1227.52,432,1227.52c79.16-46.73,167.85-117.78,167.85-117.78,43.39-27.18,120.17-118.26,120.17-118.26C805.89,868,746.28,776.9,746.28,776.9,749.14,841.75,697.83,865.59,697.83,865.59Zm7.92,237.95c-15.26,11.44-112.06,52-112.06,52,15.26-4.77,47.52,0,47.52,0,82.14,14.37,108.41-52.22,108.41-52.22,11-18.36,16.81-22.65,16.81-22.65-16.57,2.38-50.67-11.44-50.67-11.44-44.35-13.35-67.24,17.64-67.24,17.64-33.38,35.29-59.13,53.88-59.13,53.88C657.17,1113,705.75,1103.54,705.75,1103.54Zm-90,114C531.92,1203.68,495,1236.58,495,1236.58c62.47-13.83,133.52,23.84,133.52,23.84,59.61,36.72,94.89-9.06,94.89-9.06,10-13.35,31.95-8.57,31.95-8.57-58.18-73.9-131.61-69.16-131.61-69.16-89.17.48-159.74,65.81-159.74,65.81C573.19,1182.7,615.74,1217.51,615.74,1217.51Zm157-926.85c27.3,54.35,9.27,285,9.27,285,12.7-81.78,77.72-120.9,77.72-120.9-70.61,76.7-68.07,128-68.07,128,27.94-66,119.88-108.2,119.88-108.2,68.07-21.33,53.84-100.07,53.84-100.07,0-17.27,14.22-26.92,14.22-26.92-78.23,1-134.1,42.67-134.1,42.67,4.06-10.67,6.1-40.13,6.1-40.13,3-49.27-31-88.39-31-88.39C783.58,222.59,772.78,186,772.78,186M893.26,879s-55.66-143.32,40.35-272.72c0,0,64-83,17.62-126.62,0,0-7.42,18.09-37.57,30.61,0,0-163.59,37.78-58.48,298.08,0,0-18.61-110.75,21-171.42C876.22,636.9,826.93,773.25,893.26,879Zm252.56,852.76s282.17-111.46,151-448.65c0,0-83.24-172.12-217.27-304.74,0,0-186.23-174.95-87.47-366.82,0,0,35.27-74.78,97.35-40.91,0,0,40.79,28.67,15.3,56.95,0,0-29.07,30.26-56.55-2.39,0,0,25.73,89.35,119.07,27.48,0,0,48.58-49,15.53-103.53,0,0-56.55-96.77-151.72-25.49,0,0-259.05,220.52,88.82,597.72,0,0,182.24,179.41,167.07,345.16C1286.91,1466.48,1298.2,1628.73,1145.83,1731.72Zm-69.08-1.93c227.8-57.32,194.65-290.11,194.65-290.11-9.21-79.32-37.9-132-37.9-132-45.33-98.11-199.51-255.08-241-319.13C861,785.35,925.73,662.29,925.73,662.29c-94.88,223.49,146.73,475.46,146.73,475.46,62.08,70.92,104,134.6,130.74,191.49,0,0-43.26-56-147-70.59,0,0-254-45.12-275.11,214,0,0,2.91,155,144.1,179,0,0,166.67,42.94,185.59-150.65,0,0-34.93,96.8-141.19,96.07,0,0-92.43-.73-137.55-96.8,0,0-42.94-115,53.86-188.5,0,0,139.74-125.18,305.67,37.85,0,0,88.79,85.88,33.48,235.08,0,0-21.11,52.4-56.77,83.7C1168.25,1668.4,1122.83,1713.34,1076.74,1729.79ZM1149,970.33s-7.32-52,13.82-104.08c0,0,15.92-78.14-32.53-109,0,0-34.15-15.45-56.11-52.86,0,0-5.76,35-25.21,66.68,0,0-31.71,69.93,17.08,117.09,0,0,57.73,63.43,59.36,82.13l-33.34-185.4Zm81.34,131.11s-7.55-71.31,20.55-129.19c0,0,52.74-82.63,22.17-122.48,0,0-25.11-36.91-15-58.72,0,0-43.62,20.13-69.63,91.44,0,0-20.55,49.92,0,137.16,0,0,22.23,85.15,39.43,118.29,0,0-34.4-115.77-8-187.92C1219.86,950,1208.53,1058.65,1230.35,1101.44Zm40.27-7.55c12.58-57.89,52.43-43.2,52.43-43.2,26.85,5.45,16.78,34,16.78,34-14.68,26-37.33,15.94-37.33,15.94,55.79,47,89.76-24.33,89.76-24.33,18.88-59.14-39-83.05-39-83.05-89.76-36.07-106.12,77.18-106.12,77.18-10.91,101.51,44.88,172.4,44.88,172.4C1260.13,1181.14,1270.61,1093.89,1270.61,1093.89Zm50.26,70.35s-50.18,33.77-4.81,120c0,0,37.3,72.58,35.28,118.45,0,0,7.61,81.65-30.47,161.8,0,0,75.33-74.6,51.64-237.4,0,0,31.75,64.52-5,175.41,0,0,87.7-130.55,46.37-236.39,0,0-16.48-40.32-52.85-59.48C1361,1206.57,1318.63,1179.35,1320.88,1164.23Zm-313.31,128s-171.42-.11-160.13,173.53c0,0,22.57,136,163.66,98.67,0,0-127.68,13.5-143.91-107.84C867.18,1456.6,847.3,1319.93,1007.56,1292.24Zm155.9,60s-81.83-79-187.64-29.63c0,0-54.32,21.16-71.25,91.71,0,0-16.22,105.11,79,125.57,0,0-32.45-92.41,38.8-152.37,0,0,72.81-81.54,192.58,30.33,0,0-42.33-108.64-203.87-79C1011.09,1338.8,1076,1301.41,1163.46,1352.2Zm-9.54,131.92c-12.43-13.78,3.36-28.22,3.36-28.22,29.9-22.51,50.74,33.67,50.74,33.67,11.76,38,3.36,81.36,3.36,81.36,50.74-98-25.2-153.67-25.2-153.67-36.62-24.86-66.87,9.41-66.87,9.41-37.25,51.27,15.62,78.62,15.62,78.62,40.61,16.22,48.28-17.64,48.28-17.64C1160.31,1493.52,1153.92,1484.12,1153.92,1484.12Zm-272.84,163c21.23,20.21,69.17,30.2,69.17,30.2,39.57,8.79,103.57-3.42,103.57-3.42-37.62,22.47-124.83,6.35-124.83,6.35,98.44,57.65,164.4,29.8,164.4,29.8,46.9-15.63,71.33-80.61,71.33-80.61,1.47-9.28,14.66-12.21,14.66-12.21-11.24-21.5-39.57-16.61-39.57-16.61-19.05-1-87.45,42-87.45,42-69.37,38.11-148.48,11.25-148.48,11.25-18-5.64-22.79-6.76-22.79-6.76m130,113.65c-14.56-2.6-44.62-26.53-44.62-26.53-17.16-17.68-56.69-42.13-56.69-42.13,4.16,1.56,53.57,51,53.57,51,8.32,8.32,53.57,36.93,53.57,36.93,59.81,33.29,131.59,36.41,131.59,36.41,120.15-.52,162.28-102.47,162.28-102.47-3.12,12.48-43.17,29.65-43.17,29.65-21.33,9.88-69.7-2.63-69.7-2.63-29.65-14.6-79.06,3.15-79.06,3.15-27,12.42-70.74,6.76-70.74,6.76-31.73-1.56-75.94-21.12-75.94-21.12C979,1743,1011.09,1760.79,1011.09,1760.79Zm-236-189.87S760,1819,981,1878.33c0,0-15.08-13.52-13.52-40.05,0,0,10.4-61.38-43.69-91.54,0,0-85.82-43-131.07-146.59,0,0,20.29,90.93,69.18,138.26C861.92,1738.42,809.91,1722.25,775.06,1570.92Zm110.87,333c-54.93-35.65-65.2-113.39-65.2-113.39-4.5,110.49,56,141.51,56,141.51,64.89,22.81,63.45,13,63.45,13-11.88-2.89-17-22.78-17-22.78-4.23-41.79-51.13-74.87-51.13-74.87-20.88-13.81-46.25-59.74-46.25-59.74C838.71,1838.42,885.93,1903.95,885.93,1903.95Zm-61.35,23.77s1.93,102.46,75.8,110.49c0,0,33.08-1.61,38.54-39.51,0,0,0-25.05-19.27-32.44,0,0-41.7-19.22-45.61,21.2,0,0,16.06-22.81,27.62,3.85,0,0,2.89,18.31-17,19C884.65,2010.27,850.6,2015.73,824.58,1927.72Zm-51.82,103.14c5.4-40.73,39.89-97.45,39.89-97.45,23.22-53.29-8.76-132.47-8.76-132.47-8-14.85-27-88.32-27-88.32,17.89,134-4.9,207.45-4.09,208.61M798.45,776.9S738.84,868,824.67,991.48c0,0,76.77,91.08,120.17,118.26,0,0,88.69,71.05,167.85,117.78,0,0-180.73-139.72-194.08-187.88,0,0,86.31,99.66,123.5,114.92,0,0-74-76.3-96.62-149.73,0,0-34-93-51.46-107.29,0,0-17.76-18.6-47.14-31.95C846.9,865.59,795.59,841.75,798.45,776.9Zm156.88,363.84s-25.75-18.6-59.13-53.88c0,0-22.89-31-67.24-17.64,0,0-34.1,13.83-50.67,11.44,0,0,5.84,4.29,16.81,22.65,0,0,26.27,66.59,108.41,52.22,0,0,32.26-4.77,47.52,0,0,0-96.8-40.53-112.06-52C839,1103.54,887.56,1113,955.33,1140.73Zm125.41,98.71s-70.57-65.33-159.74-65.81c0,0-73.43-4.74-131.61,69.16,0,0,21.94-4.78,31.95,8.57,0,0,35.29,45.78,94.89,9.06,0,0,71.05-37.67,133.52-23.84,0,0-36.94-32.9-120.75-19.07C929,1217.51,971.54,1182.7,1080.74,1239.44Z"/></g></svg>