<svg id="Layer_1" data-name="Layer 1" xmlns="http://www.w3.org/2000/svg" viewBox="0 0 1599.33 2340.23"><defs><style>.cls-1{opacity:0.05;}.cls-2{fill:#2e193f;}</style></defs><title>MyTimeToHeal-damask</title><g class="cls-1"><path class="cls-2" d="M1.51,213.88C-30.27,277.15-9.28,545.6-9.28,545.6c-14.78-95.2-90.47-140.73-90.47-140.73,82.19,89.29,79.24,149,79.24,149C-53,477-160.06,427.93-160.06,427.93c-79.24-24.83-62.68-116.49-62.68-116.49,0-20.1-16.56-31.34-16.56-31.34,91.06,1.18,156.1,49.67,156.1,49.67-4.73-12.42-7.1-46.71-7.1-46.71-3.55-57.36,36.07-102.89,36.07-102.89,43.17-45.53,55.73-88.1,55.73-88.1M-118.89,616.93c46.14,70.62,24.48,199.54,24.48,199.54,122.35-303-68.08-347-68.08-347-35.09-14.58-43.73-35.63-43.73-35.63-54,50.75,20.52,147.4,20.52,147.4,111.76,150.63,47,317.47,47,317.47C-61.52,775.66-118.89,616.93-118.89,616.93ZM-597,1582.62c-17.66-192.95,194.48-401.79,194.48-401.79C2.46,741.74-299.1,485-299.1,485c-110.79-83-176.61,29.67-176.61,29.67-38.47,63.51,18.08,120.52,18.08,120.52,108.65,72,138.6-32,138.6-32-32,38-65.82,2.78-65.82,2.78C-414.52,573.12-367,539.74-367,539.74c72.26-39.42,113.32,47.63,113.32,47.63,115,223.36-101.83,427-101.83,427-156,154.38-252.92,354.75-252.92,354.75-152.74,392.52,175.73,522.26,175.73,522.26C-610.11,1771.49-597,1582.62-597,1582.62Zm138.13,235c-41.51-36.43-66.08-97.43-66.08-97.43-64.39-173.68,39-273.65,39-273.65,193.16-189.78,355.83-44.05,355.83-44.05C-17.44,1488.1-67.43,1622-67.43,1622-120,1733.8-227.55,1734.64-227.55,1734.64c-123.69.85-164.36-111.83-164.36-111.83,22,225.36,216,175.37,216,175.37,164.36-28,167.75-208.41,167.75-208.41-24.57-301.61-320.25-249.08-320.25-249.08-120.79,16.93-171.15,82.18-171.15,82.18,31.11-66.23,79.92-140.35,152.19-222.91,0,0,281.25-293.3,170.8-553.47,0,0,75.4,143.25-77.73,379.81-48.27,74.57-227.75,257.29-280.52,371.5,0,0-33.41,61.28-44.12,153.62,0,0-38.59,271,226.58,337.71C-406,1870-458.84,1817.67-458.84,1817.67Zm88.66-1028.42L-409,1005.07c1.89-21.77,69.1-95.6,69.1-95.6C-283.1,854.56-320,773.16-320,773.16c-22.63-36.86-29.34-77.62-29.34-77.62-25.56,43.54-65.31,61.53-65.31,61.53-56.39,35.88-37.86,126.84-37.86,126.84,24.61,60.58,16.09,121.16,16.09,121.16ZM-518.92,981.42c30.76,84-9.28,218.75-9.28,218.75,20-38.57,45.9-137.7,45.9-137.7,23.93-101.56,0-159.67,0-159.67-30.27-83-81.05-106.45-81.05-106.45,11.72,25.39-17.51,68.36-17.51,68.36-35.58,46.39,25.81,142.58,25.81,142.58,32.71,67.38,23.93,150.39,23.93,150.39C-505.73,1107.88-518.92,981.42-518.92,981.42Zm-84,340.82s64.94-82.52,52.25-200.68c0,0-19-131.84-123.54-89.84,0,0-67.38,27.83-45.41,96.68,0,0,39.55,83,104.49,28.32,0,0-26.37,11.72-43.46-18.55,0,0-11.72-33.2,19.53-39.55,0,0,46.39-17.09,61,50.29C-578,1148.9-565.79,1250.46-602.9,1322.24Zm-80.31-42.17c-42.33,22.3-61.52,69.24-61.52,69.24-48.11,123.22,54,275.18,54,275.18-42.83-129.08-5.87-204.18-5.87-204.18-27.58,189.52,60.11,276.35,60.11,276.35-44.33-93.29-35.47-188.34-35.47-188.34-2.35-53.39,41.07-137.88,41.07-137.88,52.81-100.33-5.6-139.64-5.6-139.64C-633.9,1248.39-683.21,1280.07-683.21,1280.07Zm574.84,291.05c-18.89,141.24-167.52,125.53-167.52,125.53,164.23,43.41,190.51-114.86,190.51-114.86,13.14-202.14-186.41-202-186.41-202C-85.23,1412-108.37,1571.13-108.37,1571.13ZM-275.89,1434c-188-34.49-237.32,92-237.32,92C-373.79,1395.74-289,1490.65-289,1490.65c82.94,69.8,45.16,177.37,45.16,177.37,110.86-23.81,92-146.17,92-146.17-19.71-82.12-82.94-106.75-82.94-106.75-123.18-57.48-218.43,34.49-218.43,34.49C-351.44,1390.47-275.89,1434-275.89,1434Zm-200.37,173.27s8.93,39.42,56.2,20.53c0,0,61.55-31.83,18.19-91.52,0,0-35.2-39.9-77.84-11,0,0-88.4,64.79-29.34,178.88,0,0-9.78-50.43,3.91-94.7,0,0,24.25-65.4,59.06-39.19,0,0,18.38,16.82,3.91,32.86C-442.16,1603.15-449.59,1614.11-476.26,1607.26Zm351.7,185.67s-5.59,1.3-26.53,7.87c0,0-92.09,31.26-172.85-13.1,0,0-79.62-50-101.8-48.91,0,0-33-5.69-46.07,19.34,0,0,15.36,3.41,17.06,14.22,0,0,28.44,75.64,83,93.84,0,0,76.78,32.42,191.37-34.69,0,0-101.52,18.77-145.31-7.39,0,0,74.5,14.22,120.57,4,0,0,55.8-11.62,80.51-35.15m-106.06,96.21s-51.47,22.77-88.4,24.58c0,0-51,6.59-82.34-7.87,0,0-57.52-20.66-92-3.67,0,0-56.31,14.57-81.13,3.07,0,0-46.62-20-50.25-34.51,0,0,49,118.67,188.91,119.28,0,0,83.55-3.63,153.18-42.38,0,0,52.68-33.3,62.36-43,0,0,57.52-57.52,62.36-59.34,0,0-46,28.46-66,49,0,0-35,27.85-51.94,30.88C-275.89,1925.22-238.48,1904.51-230.61,1889.13Zm128.36,10.05c56.91-55.1,80.53-160.95,80.53-160.95C-74.4,1858.83-174.3,1908.87-174.3,1908.87c-63,35.12-50.86,106.56-50.86,106.56,1.82,30.88-15.74,46.62-15.74,46.62C16.42,1993-1.14,1704.2-1.14,1704.2-41.71,1880.36-102.25,1899.18-102.25,1899.18Zm42,57.33s-29.54,53.47-53.84,69.55c0,0-54.59,38.51-59.51,87.16,0,0-5.92,23.15-19.75,26.51,0,0-1.67,11.43,73.86-15.12,0,0,70.46-36.11,65.23-164.73,0,0-12,90.49-75.9,132C-130.2,2091.87-75.23,2015.59-60.28,1956.52Zm-68.42,259.12c-23.18-.75-19.82-22.06-19.82-22.06,13.46-31,32.16-4.49,32.16-4.49-4.55-47.05-53.09-24.68-53.09-24.68-22.43,8.6-22.43,37.76-22.43,37.76,6.36,44.12,44.87,46,44.87,46,86-9.35,88.24-128.62,88.24-128.62C-89.07,2222-128.7,2215.63-128.7,2215.63ZM1.51,2112c.95-1.35-25.59-86.85-4.76-242.83,0,0-22.16,85.52-31.46,102.81,0,0-37.22,92.17-10.19,154.21,0,0,40.15,66,46.44,113.44M-84.76,883.15c-34.19,15.54-54.87,37.19-54.87,37.19-20.29,16.65-59.91,124.89-59.91,124.89-26.32,85.48-112.48,174.3-112.48,174.3,43.3-17.76,143.77-133.78,143.77-133.78-15.54,56.06-225.92,218.7-225.92,218.7,92.14-54.4,195.39-137.11,195.39-137.11,50.51-31.64,139.88-137.66,139.88-137.66C41,885.92-28.36,779.9-28.36,779.9-25,855.39-84.76,883.15-84.76,883.15Zm9.22,277c-17.76,13.32-130.45,60.5-130.45,60.5,17.76-5.55,55.31,0,55.31,0,95.62,16.73,126.2-60.78,126.2-60.78,12.77-21.37,19.57-26.37,19.57-26.37-19.29,2.78-59-13.32-59-13.32-51.62-15.54-78.27,20.54-78.27,20.54C-181,1181.78-211,1203.43-211,1203.43-132.1,1171.1-75.54,1160.14-75.54,1160.14ZM-180.33,1292.8c-97.57-16.1-140.57,22.2-140.57,22.2,72.72-16.1,155.42,27.75,155.42,27.75C-96.08,1385.5-55,1332.21-55,1332.21c11.66-15.54,37.19-10,37.19-10-67.72-86-153.2-80.51-153.2-80.51-103.8.56-186,76.6-186,76.6C-229.86,1252.28-180.33,1292.8-180.33,1292.8ZM2.49,213.88C34.27,277.15,13.28,545.6,13.28,545.6c14.78-95.2,90.47-140.73,90.47-140.73-82.19,89.29-79.24,149-79.24,149C57,477,164.06,427.93,164.06,427.93c79.24-24.83,62.68-116.49,62.68-116.49,0-20.1,16.56-31.34,16.56-31.34-91.06,1.18-156.1,49.67-156.1,49.67,4.73-12.42,7.1-46.71,7.1-46.71,3.55-57.36-36.07-102.89-36.07-102.89C15.06,134.65,2.49,92.07,2.49,92.07M142.73,898.71s-64.79-166.83,47-317.47c0,0,74.51-96.64,20.52-147.4,0,0-8.64,21.06-43.73,35.63,0,0-190.43,44-68.08,347,0,0-21.66-128.92,24.48-199.54C122.89,616.93,65.52,775.66,142.73,898.71Zm294,992.67s328.47-129.74,175.73-522.26c0,0-96.9-200.37-252.92-354.75,0,0-216.79-203.65-101.83-427,0,0,41.06-87,113.32-47.63,0,0,47.48,33.38,17.81,66.29,0,0-33.84,35.23-65.82-2.78,0,0,29.95,104,138.6,32,0,0,56.55-57,18.08-120.52,0,0-65.82-112.64-176.61-29.67,0,0-301.56,256.7,103.39,695.79,0,0,212.15,208.84,194.48,401.79C601,1582.62,614.11,1771.49,436.74,1891.38Zm-80.42-2.25C621.5,1822.4,582.9,1551.42,582.9,1551.42c-10.72-92.34-44.12-153.62-44.12-153.62C486,1283.59,306.53,1100.87,258.27,1026.3c-153.13-236.56-77.73-379.81-77.73-379.81C70.09,906.65,351.33,1200,351.33,1200c72.27,82.56,121.08,156.68,152.19,222.91,0,0-50.36-65.25-171.15-82.18,0,0-295.68-52.53-320.25,249.08,0,0,3.39,180.46,167.75,208.41,0,0,194,50,216-175.37,0,0-40.67,112.68-164.36,111.83,0,0-107.6-.85-160.12-112.68,0,0-50-133.86,62.69-219.43,0,0,162.66-145.72,355.83,44.05,0,0,103.36,100,39,273.65,0,0-24.57,61-66.08,97.43C462.84,1817.67,410,1870,356.32,1889.13Zm84.12-884.06s-8.52-60.58,16.09-121.16c0,0,18.53-91-37.86-126.84,0,0-39.76-18-65.31-61.53,0,0-6.71,40.76-29.34,77.62,0,0-36.92,81.41,19.88,136.31,0,0,67.21,73.83,69.1,95.6L374.18,789.25Zm94.68,152.62s-8.79-83,23.93-150.39c0,0,61.39-96.19,25.81-142.58,0,0-29.23-43-17.51-68.36,0,0-50.78,23.44-81.05,106.45,0,0-23.93,58.11,0,159.67,0,0,25.88,99.12,45.9,137.7,0,0-40-134.77-9.28-218.75C522.92,981.42,509.73,1107.88,535.12,1157.69ZM582,1148.9c14.65-67.38,61-50.29,61-50.29,31.25,6.35,19.53,39.55,19.53,39.55-17.09,30.27-43.46,18.55-43.46,18.55,64.94,54.69,104.49-28.32,104.49-28.32,22-68.85-45.41-96.68-45.41-96.68-104.49-42-123.54,89.84-123.54,89.84-12.7,118.16,52.25,200.68,52.25,200.68C569.79,1250.46,582,1148.9,582,1148.9Zm58.51,81.89s-58.41,39.31-5.6,139.64c0,0,43.42,84.49,41.07,137.88,0,0,8.86,95.05-35.47,188.34,0,0,87.69-86.84,60.11-276.35,0,0,37,75.1-5.87,204.18,0,0,102.09-152,54-275.18,0,0-19.19-46.94-61.52-69.24C687.21,1280.07,637.9,1248.39,640.51,1230.79Zm-364.72,149s-199.54-.13-186.41,202c0,0,26.28,158.27,190.51,114.86,0,0-148.63,15.71-167.52-125.53C112.37,1571.13,89.23,1412,275.79,1379.79Zm181.48,69.8s-95.26-92-218.43-34.49c0,0-63.23,24.64-82.94,106.75,0,0-18.89,122.35,92,146.17,0,0-37.77-107.57,45.16-177.37,0,0,84.76-94.91,224.18,35.31,0,0-49.27-126.46-237.32-92C279.89,1434,355.44,1390.47,457.27,1449.59Zm-11.11,153.56c-14.47-16,3.91-32.86,3.91-32.86,34.81-26.21,59.06,39.19,59.06,39.19,13.69,44.28,3.91,94.7,3.91,94.7,59.06-114.08-29.34-178.88-29.34-178.88-42.63-28.94-77.84,11-77.84,11-43.36,59.69,18.19,91.52,18.19,91.52,47.27,18.89,56.2-20.53,56.2-20.53C453.59,1614.11,446.16,1603.15,446.16,1603.15ZM128.55,1792.93c24.71,23.53,80.51,35.15,80.51,35.15,46.07,10.24,120.57-4,120.57-4-43.79,26.16-145.31,7.39-145.31,7.39,114.59,67.11,191.37,34.69,191.37,34.69,54.6-18.2,83-93.84,83-93.84,1.71-10.81,17.06-14.22,17.06-14.22-13.08-25-46.07-19.34-46.07-19.34-22.18-1.14-101.8,48.91-101.8,48.91-80.76,44.36-172.85,13.1-172.85,13.1-20.93-6.56-26.53-7.87-26.53-7.87m151.34,132.29c-17-3-51.94-30.88-51.94-30.88-20-20.59-66-49-66-49,4.84,1.82,62.36,59.34,62.36,59.34,9.69,9.69,62.36,43,62.36,43,69.63,38.75,153.18,42.38,153.18,42.38,139.86-.61,188.91-119.28,188.91-119.28-3.63,14.53-50.25,34.51-50.25,34.51-24.82,11.5-81.13-3.07-81.13-3.07-34.51-17-92,3.67-92,3.67C374,1920.3,323,1913.71,323,1913.71c-36.93-1.82-88.4-24.58-88.4-24.58C242.48,1904.51,279.89,1925.22,279.89,1925.22ZM5.14,1704.2S-12.42,1993,244.91,2062.06c0,0-17.56-15.74-15.74-46.62,0,0,12.11-71.45-50.86-106.56,0,0-99.9-50-152.58-170.64,0,0,23.61,105.85,80.53,160.95C106.25,1899.18,45.71,1880.36,5.14,1704.2ZM134.2,2091.87c-63.94-41.5-75.9-132-75.9-132-5.23,128.62,65.23,164.73,65.23,164.73,75.53,26.55,73.86,15.12,73.86,15.12-13.83-3.37-19.75-26.51-19.75-26.51-4.92-48.64-59.51-87.16-59.51-87.16-24.3-16.08-53.84-69.55-53.84-69.55C79.23,2015.59,134.2,2091.87,134.2,2091.87Zm-71.42,27.67S65,2238.82,151,2248.16c0,0,38.51-1.87,44.87-46,0,0,0-29.16-22.43-37.76,0,0-48.55-22.38-53.09,24.68,0,0,18.7-26.55,32.16,4.49,0,0,3.37,21.31-19.82,22.06C132.7,2215.63,93.07,2222,62.78,2119.54ZM2.46,2239.6c6.29-47.41,46.44-113.44,46.44-113.44,27-62-10.19-154.21-10.19-154.21-9.31-17.28-31.46-102.81-31.46-102.81,20.83,156-5.71,241.49-4.76,242.83M32.36,779.9s-69.39,106,30.53,249.79c0,0,89.37,106,139.88,137.66,0,0,103.25,82.71,195.39,137.11,0,0-210.38-162.64-225.92-218.7,0,0,100.47,116,143.77,133.78,0,0-86.16-88.81-112.48-174.3,0,0-39.62-108.24-59.91-124.89,0,0-20.67-21.65-54.87-37.19C88.76,883.15,29,855.39,32.36,779.9ZM215,1203.43s-30-21.65-68.83-62.72c0,0-26.64-36.08-78.27-20.54,0,0-39.69,16.1-59,13.32,0,0,6.8,5,19.57,26.37,0,0,30.58,77.51,126.2,60.78,0,0,37.55-5.55,55.31,0,0,0-112.68-47.18-130.45-60.5C79.54,1160.14,136.1,1171.1,215,1203.43Zm146,114.9s-82.15-76-186-76.6c0,0-85.48-5.51-153.2,80.51,0,0,25.53-5.57,37.19,10,0,0,41.08,53.29,110.46,10.55,0,0,82.71-43.85,155.42-27.75,0,0-43-38.3-140.57-22.2C184.33,1292.8,233.86,1252.28,361,1318.34Z"/></g></svg>